<?xml version="1.0" encoding="utf-8"?>
<!-- Generator: Adobe Illustrator 23.0.3, SVG Export Plug-In . SVG Version: 6.00 Build 0)  -->
<svg version="1.1" id="Layer_1" xmlns="http://www.w3.org/2000/svg" xmlns:xlink="http://www.w3.org/1999/xlink" x="0px" y="0px"
	 viewBox="0 0 1200 1200" enable-background="new 0 0 1200 1200" xml:space="preserve">
<g>
	<g>
		<path fill="#543CC7" d="M759.39,1136.694H284.364c-16.752,0-30.333-13.581-30.333-30.333v-42.638
			c0-52.786,42.792-95.577,95.578-95.577h500.78c52.786,0,95.578,42.792,95.578,95.577v42.638c0,16.752-13.581,30.333-30.333,30.333
			h-73.829H759.39z"/>
		<g>
			<path fill="#B07FF0" d="M437.193,322.462c0,46.484,14.726,88.887,39.032,121.178c3.46,4.701,7.097,9.137,11,13.306h212.46
				c3.903-4.17,7.54-8.605,11-13.306c24.306-32.29,39.032-74.694,39.032-121.178c0-35.306-8.427-68.307-23.153-96.25
				c-17.033,22.71-34.775,39.032-50.032,50.476c-11.444,8.516-27.411-2.307-22.887-15.524
				c11.177-32.911,15.968-69.371,18.008-97.492c-15.613-10.645-33-18.274-51.54-22c-8.694-1.774-17.654-2.661-26.702-2.661
				c-9.137,0-18.008,0.887-26.613,2.661c-19.339,3.903-37.436,11.976-53.669,23.419l-9.137,9.669l-27.323,29.363l-9.137,9.669
				C448.459,244.22,437.193,281.744,437.193,322.462z"/>
			<ellipse fill="#C61FF2" cx="593.442" cy="99.573" rx="37.794" ry="36.266"/>
		</g>
		<polygon fill="#B07FF0" points="342.74,968.145 857.257,968.145 768.547,551.21 422.579,551.21 		"/>
		<path fill="#C61FF2" d="M376.605,506.091c0,13.572,5.5,25.814,14.46,34.774c4.968,4.968,11,8.871,17.742,11.355
			c5.322,2.04,11,3.105,17.032,3.105H768.79c4.791,0,9.403-0.71,13.839-2.04c20.404-5.944,35.396-24.927,35.396-47.194
			c0-13.573-5.5-25.815-14.46-34.686c-8.96-8.959-21.202-14.459-34.775-14.459H425.839
			C398.782,456.946,376.605,479.035,376.605,506.091z"/>
		<path fill="#3324AD" d="M775,968.179c10.734,63.605,18.984,120.379,25.105,168.548h115.5c16.766,0,30.339-13.572,30.339-30.339
			v-42.669c0-52.782-42.758-95.54-95.54-95.54H775z"/>
		<path fill="#9C5CF0" d="M690.193,555.325c10.024,49.057,20.758,99.177,32.29,149.299c22,95.984,39.209,184.959,52.516,263.556
			h82.234l-87.823-412.855H690.193z"/>
		<path fill="#B500F2" d="M670.766,456.946c5.855,30.782,12.064,62.274,18.541,94.298h79.218l0.887,4.081
			c4.613-0.089,8.96-0.798,13.218-2.04c20.404-5.944,35.396-24.927,35.396-47.194c0-13.573-5.5-25.815-14.46-34.686
			c-8.96-8.959-21.202-14.459-34.775-14.459H670.766z"/>
		<path fill="#9C5CF0" d="M616.564,141.05c12.42,81.17,30.694,192.589,54.201,315.896h28.919c3.903-4.17,7.54-8.605,11-13.306
			c24.306-32.29,39.032-74.694,39.032-121.178c0-35.306-8.427-68.307-23.153-96.25c-17.033,22.71-34.775,39.032-50.032,50.476
			c-11.444,8.516-27.411-2.307-22.887-15.524c11.177-32.911,15.968-69.371,18.008-97.492c-15.613-10.645-33-18.274-51.54-22
			C618.96,141.406,617.718,141.228,616.564,141.05z"/>
		<path fill="#4D0800" d="M240.726,1063.725v42.635c0,24.062,19.574,43.64,43.636,43.64h475.03c7.351,0,13.306-5.956,13.306-13.306
			c0-7.351-5.956-13.307-13.306-13.307h-475.03c-9.386,0-17.023-7.636-17.023-17.027v-42.635c0-45.137,36.544-81.872,81.596-82.239
			h502.127c45.052,0.367,81.6,37.102,81.6,82.239v42.635c0,9.391-7.637,17.027-17.027,17.027h-73.831
			c-7.351,0-13.306,5.956-13.306,13.307c0,7.351,5.956,13.306,13.306,13.306h73.831c24.062,0,43.64-19.578,43.64-43.64v-42.635
			c0-53.897-39.403-98.651-90.891-107.27l-82.981-390.13c26.447-7.295,45.928-31.486,45.928-60.234
			c0-34.419-28.033-62.451-62.541-62.451h-41.871c22.621-33.444,36.105-75.581,36.105-121.178c0-36.282-8.516-71.678-24.75-102.46
			c-2.129-3.992-6.121-6.653-10.734-7.008c-4.524-0.355-8.96,1.597-11.71,5.234c-13.927,18.718-29.806,34.774-47.282,47.726
			c-0.443,0.443-0.887,0.532-1.419,0.355c-0.532-0.177-0.887-0.532-0.976-0.709c12.153-35.484,16.854-74.516,18.718-101.04
			c0.355-4.702-1.863-9.226-5.766-11.887c-14.434-9.829-30.019-17.092-46.221-21.618c7.279-8.568,11.658-19.536,11.658-31.479
			c0-27.336-22.922-49.574-51.099-49.574s-51.099,22.238-51.099,49.574c0,11.978,4.405,22.977,11.723,31.555
			c-17.105,4.614-33.5,12.415-48.567,23.05c-6.032,4.258-7.451,12.508-3.282,18.54c0.532,0.71,1.064,1.42,1.774,2.04
			c4.524,4.258,11.532,4.879,16.766,1.153c22-15.435,47.105-23.597,72.653-23.597c22.443,0,44.532,6.299,64.315,18.274
			c-2.041,24.306-6.653,56.863-16.677,86.226c-3.903,11.533-0.089,23.508,9.758,30.694c10.113,7.363,23.597,7.274,33.71-0.178
			c13.839-10.379,26.879-22.443,38.855-36.016c8.605,22.177,13.041,46.396,13.041,71.145c0,47.371-16.412,90.306-42.847,121.178
			H493.258c-26.435-30.871-42.846-73.807-42.846-121.178c0-36.903,9.847-72.032,28.387-101.573c3.46-5.5,2.395-12.508-2.129-16.766
			c-0.621-0.621-1.33-1.153-2.04-1.597c-6.299-3.903-14.46-2.04-18.363,4.17c-21.202,33.798-32.467,73.807-32.467,115.766
			c0,45.597,13.484,87.734,36.105,121.178h-34.065c-34.508,0-62.54,28.032-62.54,62.451c0,27.67,18.041,51.137,42.974,59.367
			l-74.849,391.026C280.03,965.179,240.726,1009.893,240.726,1063.725z M617.928,99.574c0,12.657-10.985,22.957-24.486,22.957
			c-13.501,0-24.486-10.3-24.486-22.957c0-12.661,10.985-22.961,24.486-22.961C606.943,76.613,617.928,86.913,617.928,99.574z
			 M358.869,954.839l73.906-386.208h325.882l82.157,386.208H358.869z M768.79,542.018H425.839
			c-19.782,0-35.927-16.145-35.927-35.927s16.145-35.839,35.927-35.839h55.798h41.073h141.403h41.161h63.516
			c19.783,0,35.928,16.056,35.928,35.839S788.573,542.018,768.79,542.018z"/>
		<path fill="#4D0800" d="M686.99,663.526c10.495,0,19.033,8.537,19.033,19.033v38.72c0,10.491-8.537,19.028-19.033,19.028
			c-10.491,0-19.028-8.537-19.028-19.028v-38.72C667.962,672.064,676.499,663.526,686.99,663.526z"/>
		<path fill="#4D0800" d="M552.812,778.342c7.351,0,13.306,5.956,13.306,13.306c0,18.695,15.186,33.907,33.851,33.907
			c18.695,0,33.907-15.212,33.907-33.907c0-7.351,5.956-13.306,13.306-13.306c7.351,0,13.306,5.956,13.306,13.306
			c0,33.37-27.15,60.52-60.52,60.52c-33.34,0-60.464-27.15-60.464-60.52C539.506,784.298,545.462,778.342,552.812,778.342z"/>
		<path fill="#4D0800" d="M498.768,667.186c24.521,0,44.467,19.968,44.467,44.511c0,7.351-5.956,13.306-13.306,13.306
			s-13.306-5.956-13.306-13.306c0-9.867-8.009-17.898-17.855-17.898c-9.867,0-17.894,8.031-17.894,17.898
			c0,7.351-5.956,13.306-13.306,13.306c-7.351,0-13.306-5.956-13.306-13.306C454.261,687.155,474.225,667.186,498.768,667.186z"/>
		<g>
			<g>
				<ellipse fill="#FFA1EF" cx="746.369" cy="803.403" rx="48.79" ry="22.177"/>
			</g>
			<g>
				<ellipse fill="#FFA1EF" cx="453.628" cy="803.403" rx="48.79" ry="22.177"/>
			</g>
		</g>
	</g>
</g>
</svg>
