<?xml version="1.0" encoding="utf-8"?>
<!-- Generator: Adobe Illustrator 23.0.3, SVG Export Plug-In . SVG Version: 6.00 Build 0)  -->
<svg version="1.1" id="Layer_1" xmlns="http://www.w3.org/2000/svg" xmlns:xlink="http://www.w3.org/1999/xlink" x="0px" y="0px"
	 viewBox="0 0 1200 1200" enable-background="new 0 0 1200 1200" xml:space="preserve">
<g>
	<g>
		<path fill="#543CC7" d="M751.165,1135.952h-501.51c-17.686,0-32.024-14.338-32.024-32.024v-45.015
			c0-55.729,45.177-100.906,100.906-100.906h528.701c55.729,0,100.906,45.177,100.906,100.906v45.015
			c0,17.687-14.338,32.024-32.024,32.024h-77.946H751.165z"/>
		<polygon fill="#B07FF0" points="844.269,958.006 301.066,958.006 329.163,738.618 816.172,738.618 		"/>
		<g>
			<path fill="#C61FF2" d="M265.994,682.601c0,27.909,22.196,50.855,49.825,51.885c0.656,0.094,1.405,0.094,2.06,0.094h509.486
				c0.749,0,1.405,0,2.154-0.094c13.486-0.468,25.568-6.181,34.559-15.172c9.459-9.459,15.266-22.383,15.266-36.713
				c0-28.471-23.414-51.885-51.979-51.885H317.879c-0.843,0-1.686,0-2.528,0.093c-3.934,0.188-7.774,0.843-11.426,1.873
				c-4.777,1.311-9.272,3.278-13.299,5.9c-3.465,2.061-6.556,4.589-9.366,7.399c-0.562,0.468-1.03,1.03-1.405,1.592
				C271.145,656.752,265.994,669.115,265.994,682.601z"/>
		</g>
		<path fill="#B07FF0" d="M288.472,623.692c0.656,4.87,1.405,9.834,2.154,14.891c0,0,38.305,0.375,38.118,4.308
			c9.553-3.465,24.07,0,34.84,0h444.583c-0.375-3.653-0.749-7.774-1.218-12.175c-0.374-4.402-0.843-9.179-1.311-14.048
			c-2.248-25.849-3.559-55.257,3.933-63.967c0.094-0.188,0.375-0.468,0.562-0.656c8.149-7.774,5.526-11.707,4.308-13.018
			c1.592,0.094,3.091,0.375,4.495,0.562c0.562,0.094,1.031,0.188,1.499,0.281c1.03,0.188,1.966,0.374,2.903,0.562
			c3.091,0.562,6.275,1.218,9.366,1.967c17.607,4.027,34.933,9.74,52.915,9.552c44.861-0.187,83.728-38.586,93.656-82.323
			c9.928-43.831-4.683-90.284-29.876-127.465c-32.499-47.858-80.638-82.324-128.496-115.103c0,0,0,0-0.094,0
			c-2.248-1.592-4.402-3.09-6.649-4.589c-3.466-2.341-1.311-6.93-1.311-6.93c-0.094-3.746-0.375-7.68-0.749-11.519
			c-3.184-37.369-16.577-78.671-32.873-112.2c-5.713-11.707-14.704-24.07-28.284-25.662c-9.179-1.124-19.012,3.653-27.722,9.553
			c-2.157,1.438-4.202,2.983-6.159,4.538c-0.821-0.377-1.593-0.857-2.431-1.19c-9.519-3.776-19.49-2.558-28.93-5.89
			c-38.829-13.708-84.844-14.775-125.301-9.914c-41.866,5.03-82.801,18.261-119.383,39.294c-5.565,3.199-11.253,6.983-14.774,12.169
			c-2.563,1.828-5.209,3.534-7.702,5.461l5.873-1.976c-0.182,0.428-0.49,0.777-0.641,1.223c-0.89,2.627-1.139,5.287-0.937,7.946
			c-5.082-5.07-11.254-8.487-17.855-6.707c-0.094,0-0.281,0.094-0.375,0.187c-5.9,1.779-9.834,7.118-13.018,12.363
			c-4.027,6.462-7.773,13.486-11.144,20.885c-3.653,7.867-6.931,16.202-9.834,24.912c-0.049,0.139-0.086,0.287-0.135,0.426
			l0.041-0.239l0.094-0.188l2.248-13.111c-8.335,10.583-15.921,21.728-22.664,33.341c-12.924,21.634-23.32,44.861-31.562,68.649
			c-18.825,54.227-31.656,106.299-36.807,163.523C275.921,496.789,278.357,551.858,288.472,623.692z"/>
		<path fill="#9C5CF0" d="M716.664,738.607c8.523,56.662,21.073,128.496,38.68,219.435h88.879l-28.097-219.435H716.664z"/>
		<path fill="#3324AD" d="M755.344,958.042c10.209,52.728,22.103,111.732,35.964,177.946h124.842
			c17.701,0,32.031-14.329,32.031-32.03v-45.048c0-55.725-45.236-100.867-100.961-100.867H755.344z"/>
		<path fill="#B500F2" d="M704.864,642.892c2.154,24.818,5.807,54.976,11.239,91.689h111.263c0.749,0,1.405,0,2.154-0.094
			c13.486-0.468,25.568-6.181,34.559-15.172c9.459-9.459,15.266-22.383,15.266-36.713c0-28.471-23.414-51.885-51.979-51.885h-20.417
			c0.468,4.402,0.843,8.522,1.218,12.175H704.864z"/>
		<path fill="#9C5CF0" d="M703.834,630.716h103.115c-0.374-4.402-0.843-9.179-1.311-14.048c-2.248-25.849-3.559-55.257,3.933-63.967
			c0.094-0.188,0.375-0.468,0.562-0.656c8.149-7.774,5.526-11.707,4.308-13.018c1.592,0.094,3.091,0.375,4.495,0.562
			c0.562,0.094,1.031,0.188,1.499,0.281c1.03,0.188,1.966,0.374,2.903,0.562c3.091,0.562,6.275,1.218,9.366,1.967
			c17.607,4.027,34.933,9.74,52.915,9.552c44.861-0.187,83.728-38.586,93.656-82.323c9.928-43.831-4.683-90.284-29.876-127.465
			c-32.499-47.858-80.638-82.324-128.496-115.103c0,0,0,0-0.094,0c-2.248-1.592-4.402-3.09-6.649-4.589
			c-3.466-2.341-1.311-6.93-1.311-6.93c-0.094-3.746-0.375-7.68-0.749-11.519c-3.184-37.369-16.577-78.671-32.873-112.2
			c-5.713-11.707-14.704-24.07-28.284-25.662c-9.179-1.124-19.012,3.653-27.722,9.553c-2.154,1.404-4.215,2.997-6.182,4.495
			c-0.843-0.374-1.592-0.843-2.435-1.124c-9.459-3.84-19.481-2.622-28.94-5.9c-34.091-11.988-73.894-14.329-110.513-11.426
			c71.553,77.921,218.03,248.468,232.078,353.643C815.19,701.145,686.695,399.293,703.834,630.716z"/>
		<path fill="#C61FF2" d="M695.093,76.579c13.539,3.18,27.442,7.037,38.152,15.908c9.356,7.75,15.72,19.483,15.543,31.63
			c-0.177,12.147-7.56,24.282-18.876,28.701c-12.924,5.046-27.282-0.21-40.522-4.355c-77.777-24.354-167.192-7.564-230.836,43.344
			c-11.739-18.876-23.477-37.752-35.216-56.628c-2.729-4.389-5.572-9.344-4.56-14.412c1.177-5.894,7.019-9.486,12.357-12.249
			c40.233-20.83,84.881-36.521,129.34-45.531C603.056,54.357,653.638,66.844,695.093,76.579z"/>
		<path fill="#C61FF2" d="M355.295,353.745c-2.792,50.037-13.359,99.445-15.202,149.525c-0.996,27.055,0.562,54.147-0.061,81.213
			c-0.244,10.574-0.909,21.492-5.639,30.953c-4.73,9.46-14.545,17.145-25.08,16.209c-8.565-0.761-15.88-7.034-20.069-14.543
			c-4.19-7.509-5.754-16.166-7.019-24.671c-4-26.9-5.637-54.107-6.17-81.297c-1.929-98.483,9.599-217.671,71.659-298.837
			c3.614,19.777,3.215,41.561,5.435,61.758C356.054,300.498,356.777,327.183,355.295,353.745z"/>
		<path fill="#4D0800" d="M203.586,1058.914v45.012c0,25.403,20.67,46.073,46.069,46.073h501.51c7.76,0,14.048-6.288,14.048-14.048
			s-6.288-14.048-14.048-14.048h-501.51c-9.905,0-17.972-8.062-17.972-17.977v-45.012c0-47.893,38.962-86.86,86.851-86.86h525.733
			h2.972c47.893,0,86.855,38.967,86.855,86.86v45.012c0,9.914-8.062,17.977-17.977,17.977h-77.943
			c-7.76,0-14.048,6.288-14.048,14.048S830.416,1150,838.176,1150h77.943c25.403,0,46.073-20.67,46.073-46.073v-45.012
			c0-60.196-46.529-109.643-105.5-114.478L831.591,748.44c34.461-2.16,61.802-30.815,61.802-65.839
			c0-36.338-29.595-65.933-66.027-65.933h-7.68c-1.686-20.511-3.278-48.42,0.749-55.163c2.248-2.061,4.027-4.215,5.338-6.275
			c4.963,1.03,9.834,2.341,14.891,3.559c14.33,3.652,29.127,7.211,45.048,7.211c49.169-0.187,95.248-40.272,107.236-93.281
			c2.341-10.115,3.465-20.698,3.465-31.375c0-35.308-12.269-72.957-35.401-107.048c-34.84-51.323-87.193-88.036-134.209-120.16
			c-1.124-38.586-13.955-85.32-34.933-128.401c-9.927-20.324-23.133-31.656-39.335-33.529c-13.393-1.592-28.19,4.308-45.048,17.795
			h-0.094c-16.296-5.526-32.686-9.927-49.075-13.206c-7.68-1.404-14.985,3.465-16.483,11.051
			c-1.592,7.68,3.371,15.078,10.958,16.577c4.496,0.843,8.991,1.873,13.486,2.997c18.263,4.308,36.526,10.208,54.414,17.514
			c4.683,1.873,9.553,4.027,11.707,6.837c4.777,6.088,1.873,20.323-3.746,29.22c-0.281,0.468-0.656,1.124-1.124,1.873
			c-2.061,3.84-3.466,6.368-9.834,5.057c-5.994-2.903-11.988-5.525-17.982-7.96c-2.248-0.936-4.402-1.779-6.65-2.622
			c-30.344-11.707-58.909-17.514-87.38-17.795c-49.919-0.374-99.556,17.232-143.949,51.229
			c-4.964-14.703-11.707-28.752-20.042-42.051c-1.206-1.855-2.411-3.612-3.617-5.193c37.694-25.775,84.189-41.665,132.611-44.838
			c4.985-0.325,9.965-0.521,14.949-0.594c7.756-0.119,13.952-6.498,13.838-14.259C599.359,56.151,593.089,50,585.43,50
			c-0.073,0-0.142,0-0.215,0c-5.46,0.082-10.916,0.297-16.367,0.659c-57.166,3.741-112.091,23.618-155.359,55.893
			c-0.027-0.005-0.054-0.021-0.081-0.025c-4.027-0.749-8.054-0.562-12.081,0.562c-12.269,3.371-18.919,14.236-21.728,18.825
			c-5.338,8.616-10.209,18.169-14.517,28.378c-1.218,0.655-2.341,1.686-3.278,2.903c-23.507,29.876-42.519,65.559-56.474,106.018
			c-20.698,59.846-32.592,112.855-37.462,166.988c-5.994,65.653-3.84,122.97,7.68,202.015
			c-14.423,12.081-23.601,30.157-23.601,50.387c0,35.02,27.335,63.767,61.791,65.838l-25.578,199.724
			C239.492,961.535,203.586,1006.057,203.586,1058.914z M341.762,247.103c-3.465,30.438-3.185,61.438,1.404,89.535
			c0.656,4.495,1.499,8.897,2.435,13.205c-18.544,76.798-24.819,186.375-29.408,266.918c-4.963,0.094-9.74,0.749-14.329,1.967
			c-1.218-8.897-2.248-17.514-3.278-25.943c-6.93-59.284-7.586-106.954-2.716-160.057c4.683-51.792,16.108-102.74,36.057-160.245
			C334.924,263.774,338.203,255.345,341.762,247.103z M796.834,193.813c-0.374-0.281-0.749-0.562-1.218-0.843
			c-15.172-10.021-31.281-20.136-48.045-29.595c1.593-2.06,3.185-4.402,4.683-7.118c2.341-3.653,4.402-7.774,6.088-12.081
			c6.275-16.202,7.118-35.589-3.84-49.731c-4.214-5.526-9.646-9.179-15.172-11.988c5.245-2.435,8.429-2.528,9.927-2.341
			c7.586,0.843,13.58,10.209,17.327,17.889C781.849,129.378,792.619,163.843,796.834,193.813z M789.809,582.577
			c0,9.646,0.656,20.885,1.779,34.091H344.29c4.308-76.329,10.209-178.321,26.692-251.652c3.371-3.372,5.057-8.335,3.84-13.299
			l-0.374-1.779c-0.094-0.468-0.375-1.03-0.468-1.592c0-0.188-0.094-0.374-0.094-0.562v-0.094c0-0.281-0.094-0.562-0.188-0.936
			c-14.985-64.623-1.873-155.187,29.876-206.136c3.465-5.713,4.87-6.369,5.151-6.369c0.937,0.094,4.87,2.622,9.179,9.459
			c10.583,16.858,18.169,35.308,22.477,54.695c2.623,12.175,3.933,24.631,3.84,37.182c-0.094,7.773,6.181,14.048,13.955,14.142
			h0.094c7.679,0,13.955-6.182,14.048-13.955c0.093-11.8-0.843-23.507-2.903-35.027c30.438-25.662,77.172-53.664,135.987-53.103
			c25.006,0.281,50.387,5.432,77.547,15.922c8.335,3.184,16.483,6.743,24.538,10.583c0.094,0.093,0.281,0.093,0.468,0.187
			c30.906,14.798,60.22,33.903,87.849,52.541c3.372,2.341,6.93,4.87,10.489,7.211c46.172,31.562,98.526,67.338,131.492,115.946
			c25.849,38.118,35.964,80.544,27.816,116.508c-9.085,39.897-44.206,71.179-80.075,71.365c-12.644-0.094-24.819-2.997-38.024-6.368
			c-7.024-1.779-14.236-3.559-21.634-4.87l-6.837-1.498c-2.528-0.656-4.777-0.749-6.743-0.468c-0.094,0-0.094,0-0.188,0
			c-8.897-0.749-19.387-0.749-30.813-0.468c-19.949,0.749-42.426,2.622-63.311,4.495c-12.924,1.03-24.913,2.06-34.653,2.622
			c-38.212,2.154-65.091,1.124-101.522-1.592c-35.121-2.529-65.466-16.39-90.284-40.927c-24.538-24.35-32.592-62.281-18.637-88.317
			c0.281-0.468,0.468-0.936,0.655-1.405c2.623-6.555,0-14.235-6.368-17.607c-6.837-3.652-15.359-1.124-19.012,5.713
			c-19.949,37.181-10.021,88.317,23.601,121.565c29.22,29.033,66.589,45.985,107.985,49.075c23.601,1.686,43.456,2.81,64.716,2.81
			c12.55,0,25.662-0.374,40.459-1.218c9.927-0.562,22.196-1.592,35.496-2.81c23.601-1.966,51.604-4.308,73.426-4.402
			C791.027,559.632,789.809,569.559,789.809,582.577z M827.365,720.532H317.879c-20.885,0-37.837-17.045-37.837-37.93
			c0-13.018,6.65-24.538,16.671-31.374c0.187-0.094,0.281-0.188,0.374-0.188c0.468-0.374,0.936-0.656,1.405-0.936
			c4.87-2.904,10.396-4.777,16.39-5.151c0.936-0.187,1.966-0.187,2.996-0.187h504.148h5.338c20.885,0,37.93,16.952,37.93,37.837
			C865.296,703.486,848.25,720.532,827.365,720.532z M318.534,943.958h-1.509l24.502-191.29h462.278l24.498,191.29H318.534z"/>
		<path fill="#4D0800" d="M570.187,263.587c11.051,0,20.042,9.084,20.042,20.136v33.81c0,11.051-8.991,20.136-20.042,20.136
			c-11.145,0-20.136-9.084-20.136-20.136v-33.81C550.051,272.671,559.042,263.587,570.187,263.587z"/>
		<path fill="#4D0800" d="M761.9,231.275c11.051,0,20.136,8.991,20.136,20.136v33.81c0,11.051-9.084,20.042-20.136,20.042
			c-11.051,0-20.042-8.991-20.042-20.042v-33.81C741.858,240.266,750.849,231.275,761.9,231.275z"/>
		<g>
			<g>
				<ellipse fill="#FFA1EF" cx="549.208" cy="384.777" rx="51.511" ry="23.414"/>
			</g>
			<g>
				<ellipse fill="#FFA1EF" cx="858.272" cy="337.949" rx="51.511" ry="23.414"/>
			</g>
		</g>
	</g>
</g>
</svg>
